<svg viewBox="0 0 24 24" xmlns="http://www.w3.org/2000/svg">
  <rect width="24" height="24" rx="4" fill="#2563eb"/>
  <g fill="white">
    <!-- Back page (shadow effect) -->
    <path d="M7 5h10a1.5 1.5 0 0 1 1.5 1.5v11a1.5 1.5 0 0 1-1.5 1.5H9a1.5 1.5 0 0 1-1.5-1.5V6.5A1.5 1.5 0 0 1 9 5z" opacity="0.3"/>
    
    <!-- Middle page -->
    <path d="M6.5 4.5h10a1.5 1.5 0 0 1 1.5 1.5v11a1.5 1.5 0 0 1-1.5 1.5h-8a1.5 1.5 0 0 1-1.5-1.5V6a1.5 1.5 0 0 1 1.5-1.5z" opacity="0.6"/>
    
    <!-- Front page (main) -->
    <path d="M6 4h10a1.5 1.5 0 0 1 1.5 1.5v11A1.5 1.5 0 0 1 16 18H8a1.5 1.5 0 0 1-1.5-1.5v-11A1.5 1.5 0 0 1 8 4z"/>
    
    <!-- Decorative lines -->
    <line x1="8.5" y1="8" x2="13.5" y2="8" stroke="white" stroke-width="0.8" opacity="0.9"/>
    <line x1="8.5" y1="10.5" x2="12.5" y2="10.5" stroke="white" stroke-width="0.8" opacity="0.9"/>
    <line x1="8.5" y1="13" x2="11.5" y2="13" stroke="white" stroke-width="0.8" opacity="0.9"/>
  </g>
</svg>
